<svg xmlns="http://www.w3.org/2000/svg" xmlns:xlink="http://www.w3.org/1999/xlink" width="500" zoomAndPan="magnify" viewBox="0 0 375 374.999991" height="500" preserveAspectRatio="xMidYMid meet" version="1.0"><defs><g/><clipPath id="9d1c234cac"><path d="M 127.722656 86.371094 L 246.972656 86.371094 L 246.972656 216.871094 L 127.722656 216.871094 Z M 127.722656 86.371094 " clip-rule="nonzero"/></clipPath></defs><g clip-path="url(#9d1c234cac)"><path fill="#ffffff" d="M 202.140625 90.613281 L 177.984375 100.058594 L 165.757812 130.007812 L 171.839844 162.707031 L 205.089844 189.195312 L 247.234375 173.015625 C 244.757812 179.738281 242.277344 186.457031 239.796875 193.175781 C 229.109375 201.070312 218.425781 208.953125 207.738281 216.847656 L 163.238281 213.613281 C 151.914062 201.761719 140.585938 189.914062 129.246094 178.054688 C 128.910156 169.976562 127.761719 127.382812 127.761719 127.382812 C 136.542969 117.246094 146.003906 106.636719 154.785156 96.496094 C 164.6875 93.117188 174.605469 89.738281 184.511719 86.371094 C 191.320312 87.414062 198.121094 88.472656 204.929688 89.515625 Z M 236.941406 178.707031 L 238.765625 181.355469 L 242.957031 176.394531 Z M 237.699219 182.632812 L 235.386719 179.292969 L 233.445312 180.035156 L 236.210938 184.394531 Z M 235.113281 185.6875 L 231.902344 180.636719 L 229.921875 181.394531 L 233.847656 187.199219 Z M 232.308594 187.800781 L 228.367188 181.992188 L 226.097656 182.867188 L 229.449219 187.96875 Z M 227.585938 188.0625 L 224.558594 183.457031 L 222.898438 184.09375 L 225.824219 188.167969 Z M 223.90625 188.269531 L 221.335938 184.695312 L 219.574219 185.375 L 221.476562 188.414062 Z M 219.636719 188.503906 L 218.046875 185.960938 L 210.035156 189.039062 Z M 216.453125 198.839844 L 218.097656 201.085938 L 219.808594 198.90625 Z M 217.066406 202.402344 L 214.417969 198.789062 L 212.785156 198.75 L 216.296875 203.382812 Z M 215.265625 204.699219 L 210.738281 198.710938 L 209.539062 198.683594 L 214.496094 205.691406 Z M 213.441406 207.007812 L 207.503906 198.644531 L 207.125 198.632812 L 206.378906 200.953125 L 212.003906 208.835938 Z M 210.972656 210.152344 L 205.78125 202.871094 L 205.089844 205.050781 L 209.667969 211.824219 Z M 208.613281 213.140625 L 204.449219 206.996094 L 203.625 209.566406 L 207.226562 214.902344 Z M 136.136719 135.957031 L 130.890625 133.648438 L 131.621094 135.671875 L 139.125 138.371094 Z M 130.121094 131.546875 L 131.324219 132.082031 L 129.886719 130.921875 Z M 142.960938 141.464844 L 132.351562 137.640625 L 132.925781 139.207031 L 145.390625 143.421875 Z M 149.015625 146.355469 L 133.632812 141.152344 L 134.152344 142.585938 L 151.457031 148.328125 Z M 155.019531 151.210938 L 134.859375 144.515625 L 135.5625 146.449219 L 158.503906 154.03125 Z M 162.078125 156.902344 L 136.269531 148.378906 L 137.234375 151.015625 L 165.183594 159.40625 Z M 168.5 162.09375 L 137.914062 152.90625 L 138.617188 154.824219 L 166.855469 163.242188 L 169.28125 162.707031 Z M 163.59375 163.960938 L 139.308594 156.730469 L 140.234375 159.277344 L 160.1875 164.71875 Z M 156.78125 165.449219 L 140.914062 161.117188 L 141.734375 163.347656 L 152.332031 166.414062 Z M 149.015625 167.144531 L 142.414062 165.226562 L 143.550781 168.332031 Z M 155.019531 102.824219 L 155.722656 102.800781 L 155.226562 101.167969 Z M 156.207031 104.390625 L 154.808594 104.445312 L 154.628906 105.929688 L 156.664062 105.839844 Z M 157.144531 107.445312 L 154.433594 107.5625 L 154.238281 109.179688 L 157.628906 109 Z M 158.113281 110.589844 L 154.027344 110.8125 L 153.792969 112.71875 L 158.671875 112.390625 Z M 159.144531 113.96875 L 153.582031 114.347656 L 153.363281 116.160156 L 159.652344 115.585938 Z M 160.121094 117.167969 L 153.152344 117.792969 L 152.878906 119.972656 L 160.707031 119.097656 Z M 161.203125 120.664062 L 152.683594 121.617188 L 152.421875 123.730469 L 161.753906 122.4375 Z M 162.222656 123.992188 L 152.214844 125.386719 L 151.953125 127.476562 L 162.785156 125.816406 Z M 163.253906 127.382812 L 151.730469 129.160156 L 151.429688 131.585938 L 163.851562 129.367188 Z M 167.441406 159.160156 L 150.023438 133.28125 L 130.851562 129.617188 Z M 156.011719 98.234375 L 165.015625 127.59375 C 168.746094 118.445312 172.492188 109.296875 176.222656 100.152344 Z M 164.257812 130.921875 L 151.863281 133.140625 L 169.59375 159.472656 C 167.808594 149.945312 166.03125 140.433594 164.257812 130.921875 Z M 130.789062 176.265625 L 142.0625 168.957031 C 137.691406 156.992188 133.320312 145.027344 128.960938 133.058594 Z M 170.664062 164.078125 L 145.035156 169.675781 L 160.539062 180.296875 L 183.285156 188.53125 Z M 143.027344 170.25 L 131.296875 177.859375 L 162.574219 210.570312 L 159.574219 181.589844 C 154.054688 177.816406 148.535156 174.035156 143.027344 170.25 Z M 222.027344 198.710938 L 211.507812 212.070312 L 237.789062 192.667969 L 233.769531 189.5625 C 229.855469 192.601562 225.941406 195.65625 222.027344 198.710938 Z M 205.558594 215.347656 L 202.320312 210.546875 L 173.039062 212.777344 Z M 164.324219 211.8125 L 202.125 208.925781 L 205.542969 198.292969 C 198.628906 195.785156 191.714844 193.28125 184.785156 190.777344 L 184.445312 190.777344 L 184.367188 190.632812 C 176.667969 187.839844 168.96875 185.058594 161.269531 182.269531 Z M 173.550781 166.125 L 185.4375 189.171875 L 202.636719 189.289062 C 192.925781 181.578125 183.230469 173.851562 173.550781 166.125 Z M 234.929688 188.414062 L 238.753906 191.375 L 243.660156 178.066406 Z M 231.238281 189.484375 C 217.066406 190.265625 203.835938 190.957031 189.636719 190.828125 L 206.691406 197 L 221.175781 197.328125 Z M 129.585938 127.738281 L 149.800781 131.597656 L 153.753906 99.851562 Z M 158.710938 96.863281 L 176.941406 98.585938 L 182.789062 88.667969 Z M 185.003906 88.082031 L 179.25 97.828125 L 198.757812 90.195312 Z M 185.003906 88.082031 " fill-opacity="1" fill-rule="nonzero"/></g><g fill="#ffffff" fill-opacity="1"><g transform="translate(178.062614, 130.47092)"><g><path d="M 15.046875 0 L 1.609375 0 L 1.609375 -18.84375 L 15.046875 -18.84375 L 15.046875 -15.09375 L 5.875 -15.09375 L 5.875 -11.296875 L 13.703125 -11.296875 L 13.703125 -7.5625 L 5.875 -7.5625 L 5.875 -3.734375 L 15.046875 -3.734375 Z M 15.046875 0 "/></g></g></g><g fill="#ffffff" fill-opacity="1"><g transform="translate(194.166439, 130.47092)"><g><path d="M 15.046875 0 L 3.90625 0.265625 C 3.175781 0.285156 2.609375 0.101562 2.203125 -0.28125 C 1.804688 -0.675781 1.609375 -1.242188 1.609375 -1.984375 L 1.609375 -18.84375 L 5.875 -18.84375 L 5.875 -3.46875 L 15.046875 -3.734375 Z M 15.046875 0 "/></g></g></g><g fill="#ffffff" fill-opacity="1"><g transform="translate(209.736138, 130.47092)"><g><path d="M 1.875 -5.609375 L 1.875 -8.8125 L 16.296875 -8.8125 L 16.296875 -5.609375 Z M 1.875 -5.609375 "/></g></g></g><g fill="#ffffff" fill-opacity="1"><g transform="translate(227.896343, 130.47092)"><g><path d="M 15.34375 -11.03125 L 15.34375 -18.84375 L 19.609375 -18.84375 L 19.609375 0 L 15.34375 0 L 15.34375 -7.296875 L 5.875 -7.296875 L 5.875 0 L 1.609375 0 L 1.609375 -18.84375 L 5.875 -18.84375 L 5.875 -11.03125 Z M 15.34375 -11.03125 "/></g></g></g><g fill="#ffffff" fill-opacity="1"><g transform="translate(249.101043, 130.47092)"><g><path d="M 14.15625 -18.84375 L 14.15625 -15.09375 L 9.890625 -15.09375 L 9.890625 -3.734375 L 14.15625 -3.734375 L 14.15625 0 L 1.34375 0 L 1.34375 -3.734375 L 5.609375 -3.734375 L 5.609375 -15.09375 L 1.34375 -15.09375 L 1.34375 -18.84375 Z M 14.15625 -18.84375 "/></g></g></g><g fill="#ffffff" fill-opacity="1"><g transform="translate(264.590621, 130.47092)"><g><path d="M 15.046875 0 L 3.90625 0.265625 C 3.175781 0.285156 2.609375 0.101562 2.203125 -0.28125 C 1.804688 -0.675781 1.609375 -1.242188 1.609375 -1.984375 L 1.609375 -18.84375 L 5.875 -18.84375 L 5.875 -3.46875 L 15.046875 -3.734375 Z M 15.046875 0 "/></g></g></g><g fill="#ffffff" fill-opacity="1"><g transform="translate(280.16032, 130.47092)"><g><path d="M 20.21875 0 L 15.890625 0 L 14.34375 -4.703125 L 6.40625 -4.703125 L 4.859375 0 L 0.53125 0 L 6.890625 -18.84375 L 13.84375 -18.84375 Z M 9.828125 -15.09375 L 7.640625 -8.4375 L 13.09375 -8.4375 L 10.90625 -15.09375 Z M 9.828125 -15.09375 "/></g></g></g><g fill="#ffffff" fill-opacity="1"><g transform="translate(300.911016, 130.47092)"><g><path d="M 15.046875 0 L 3.90625 0.265625 C 3.175781 0.285156 2.609375 0.101562 2.203125 -0.28125 C 1.804688 -0.675781 1.609375 -1.242188 1.609375 -1.984375 L 1.609375 -18.84375 L 5.875 -18.84375 L 5.875 -3.46875 L 15.046875 -3.734375 Z M 15.046875 0 "/></g></g></g><g fill="#ffffff" fill-opacity="1"><g transform="translate(182.612601, 159.560013)"><g><path d="M 1.15625 -8.140625 C 1.15625 -9.722656 1.492188 -11.140625 2.171875 -12.390625 C 2.847656 -13.648438 3.804688 -14.644531 5.046875 -15.375 C 6.296875 -16.113281 7.78125 -16.484375 9.5 -16.484375 C 11.019531 -16.484375 12.347656 -16.222656 13.484375 -15.703125 C 14.628906 -15.179688 15.550781 -14.429688 16.25 -13.453125 C 16.945312 -12.484375 17.375 -11.328125 17.53125 -9.984375 L 13.84375 -9.984375 C 13.65625 -11.054688 13.164062 -11.867188 12.375 -12.421875 C 11.59375 -12.984375 10.648438 -13.265625 9.546875 -13.265625 C 8.128906 -13.265625 6.988281 -12.828125 6.125 -11.953125 C 5.269531 -11.085938 4.84375 -9.816406 4.84375 -8.140625 C 4.84375 -6.460938 5.269531 -5.1875 6.125 -4.3125 C 6.988281 -3.4375 8.128906 -3 9.546875 -3 C 10.648438 -3 11.59375 -3.28125 12.375 -3.84375 C 13.164062 -4.40625 13.65625 -5.222656 13.84375 -6.296875 L 17.53125 -6.296875 C 17.375 -4.960938 16.945312 -3.804688 16.25 -2.828125 C 15.550781 -1.847656 14.628906 -1.09375 13.484375 -0.5625 C 12.347656 -0.03125 11.019531 0.234375 9.5 0.234375 C 7.78125 0.234375 6.296875 -0.132812 5.046875 -0.875 C 3.804688 -1.613281 2.847656 -2.613281 2.171875 -3.875 C 1.492188 -5.132812 1.15625 -6.554688 1.15625 -8.140625 Z M 1.15625 -8.140625 "/></g></g></g><g fill="#ffffff" fill-opacity="1"><g transform="translate(201.283841, 159.560013)"><g><path d="M 1.15625 -8.140625 C 1.15625 -9.722656 1.488281 -11.140625 2.15625 -12.390625 C 2.820312 -13.648438 3.773438 -14.644531 5.015625 -15.375 C 6.253906 -16.113281 7.734375 -16.484375 9.453125 -16.484375 C 11.171875 -16.484375 12.644531 -16.113281 13.875 -15.375 C 15.113281 -14.644531 16.066406 -13.648438 16.734375 -12.390625 C 17.398438 -11.140625 17.734375 -9.722656 17.734375 -8.140625 C 17.734375 -6.554688 17.398438 -5.132812 16.734375 -3.875 C 16.066406 -2.613281 15.113281 -1.613281 13.875 -0.875 C 12.644531 -0.132812 11.171875 0.234375 9.453125 0.234375 C 7.734375 0.234375 6.253906 -0.132812 5.015625 -0.875 C 3.773438 -1.613281 2.820312 -2.613281 2.15625 -3.875 C 1.488281 -5.132812 1.15625 -6.554688 1.15625 -8.140625 Z M 4.84375 -8.140625 C 4.84375 -6.566406 5.226562 -5.316406 6 -4.390625 C 6.769531 -3.460938 7.921875 -3 9.453125 -3 C 10.992188 -3 12.144531 -3.460938 12.90625 -4.390625 C 13.664062 -5.316406 14.046875 -6.566406 14.046875 -8.140625 C 14.046875 -9.691406 13.664062 -10.929688 12.90625 -11.859375 C 12.144531 -12.796875 10.992188 -13.265625 9.453125 -13.265625 C 7.921875 -13.265625 6.769531 -12.796875 6 -11.859375 C 5.226562 -10.929688 4.84375 -9.691406 4.84375 -8.140625 Z M 4.84375 -8.140625 "/></g></g></g><g fill="#ffffff" fill-opacity="1"><g transform="translate(220.162533, 159.560013)"><g><path d="M 11.953125 -3.234375 L 14.328125 -16.265625 L 21.59375 -16.265625 L 21.59375 0 L 17.890625 0 L 17.890625 -13.03125 L 17.3125 -13.03125 L 14.828125 0 L 8.140625 0 L 5.65625 -13.03125 L 5.078125 -13.03125 L 5.078125 0 L 1.390625 0 L 1.390625 -16.265625 L 8.640625 -16.265625 L 11.03125 -3.234375 Z M 11.953125 -3.234375 "/></g></g></g><g fill="#ffffff" fill-opacity="1"><g transform="translate(243.121247, 159.560013)"><g><path d="M 7.21875 -16.265625 C 8.25 -16.265625 9.203125 -16.191406 10.078125 -16.046875 C 10.953125 -15.910156 11.71875 -15.644531 12.375 -15.25 C 13.03125 -14.863281 13.539062 -14.289062 13.90625 -13.53125 C 14.269531 -12.78125 14.453125 -11.789062 14.453125 -10.5625 C 14.453125 -9.332031 14.269531 -8.335938 13.90625 -7.578125 C 13.539062 -6.816406 13.03125 -6.238281 12.375 -5.84375 C 11.71875 -5.457031 10.953125 -5.191406 10.078125 -5.046875 C 9.203125 -4.910156 8.25 -4.84375 7.21875 -4.84375 L 5.078125 -4.84375 L 5.078125 0 L 1.390625 0 L 1.390625 -16.265625 Z M 5.078125 -8.078125 L 7.453125 -8.078125 C 8.191406 -8.078125 8.804688 -8.125 9.296875 -8.21875 C 9.785156 -8.320312 10.148438 -8.550781 10.390625 -8.90625 C 10.640625 -9.257812 10.765625 -9.8125 10.765625 -10.5625 C 10.765625 -11.3125 10.640625 -11.859375 10.390625 -12.203125 C 10.148438 -12.554688 9.785156 -12.78125 9.296875 -12.875 C 8.804688 -12.976562 8.191406 -13.03125 7.453125 -13.03125 L 5.078125 -13.03125 Z M 5.078125 -8.078125 "/></g></g></g><g fill="#ffffff" fill-opacity="1"><g transform="translate(258.496202, 159.560013)"><g><path d="M 17.453125 0 L 13.71875 0 L 12.390625 -4.0625 L 5.53125 -4.0625 L 4.203125 0 L 0.46875 0 L 5.953125 -16.265625 L 11.953125 -16.265625 Z M 8.484375 -13.03125 L 6.59375 -7.28125 L 11.296875 -7.28125 L 9.40625 -13.03125 Z M 8.484375 -13.03125 "/></g></g></g><g fill="#ffffff" fill-opacity="1"><g transform="translate(276.406755, 159.560013)"><g><path d="M 13.796875 -3.234375 L 13.796875 -16.265625 L 17.484375 -16.265625 L 17.484375 0 L 10.21875 0 L 6.109375 -13.03125 L 5.078125 -13.03125 L 5.078125 0 L 1.390625 0 L 1.390625 -16.265625 L 8.640625 -16.265625 L 12.75 -3.234375 Z M 13.796875 -3.234375 "/></g></g></g><g fill="#ffffff" fill-opacity="1"><g transform="translate(295.262397, 159.560013)"><g><path d="M 8.78125 -9.484375 L 12.265625 -16.265625 L 16.21875 -16.265625 L 10.171875 -5.234375 L 10.171875 0 L 6.484375 0 L 6.484375 -5.234375 L 0.46875 -16.265625 L 4.40625 -16.265625 L 7.859375 -9.484375 L 7.859375 -7.40625 L 8.78125 -7.40625 Z M 8.78125 -9.484375 "/></g></g></g><g fill="#ffffff" fill-opacity="1"><g transform="translate(138.480468, 124.484677)"><g><path d="M 6.265625 -11.796875 C 7.441406 -11.796875 8.445312 -11.546875 9.28125 -11.046875 C 10.113281 -10.546875 10.75 -9.847656 11.1875 -8.953125 C 11.632812 -8.054688 11.859375 -7.015625 11.859375 -5.828125 C 11.859375 -4.640625 11.632812 -3.597656 11.1875 -2.703125 C 10.75 -1.804688 10.113281 -1.101562 9.28125 -0.59375 C 8.445312 -0.0820312 7.441406 0.171875 6.265625 0.171875 C 5.085938 0.171875 4.082031 -0.0820312 3.25 -0.59375 C 2.414062 -1.101562 1.773438 -1.804688 1.328125 -2.703125 C 0.878906 -3.597656 0.65625 -4.640625 0.65625 -5.828125 C 0.65625 -7.015625 0.878906 -8.054688 1.328125 -8.953125 C 1.773438 -9.847656 2.414062 -10.546875 3.25 -11.046875 C 4.082031 -11.546875 5.085938 -11.796875 6.265625 -11.796875 Z M 6.265625 -9.484375 C 5.335938 -9.484375 4.609375 -9.171875 4.078125 -8.546875 C 3.554688 -7.929688 3.296875 -7.023438 3.296875 -5.828125 C 3.296875 -5.535156 3.3125 -5.265625 3.34375 -5.015625 C 3.382812 -4.765625 3.429688 -4.53125 3.484375 -4.3125 L 7.921875 -9.046875 C 7.484375 -9.335938 6.929688 -9.484375 6.265625 -9.484375 Z M 6.265625 -2.140625 C 7.203125 -2.140625 7.925781 -2.453125 8.4375 -3.078125 C 8.957031 -3.710938 9.21875 -4.628906 9.21875 -5.828125 C 9.21875 -6.378906 9.160156 -6.882812 9.046875 -7.34375 L 4.609375 -2.609375 C 5.054688 -2.296875 5.609375 -2.140625 6.265625 -2.140625 Z M 6.265625 -2.140625 "/></g></g></g><g fill="#ffffff" fill-opacity="1"><g transform="translate(160.261636, 113.286286)"><g><path d="M 3.453125 -11.640625 L 8.59375 -11.640625 L 8.59375 0 L 5.953125 0 L 5.953125 -9.328125 L 5.453125 -9.328125 C 5.410156 -8.984375 5.316406 -8.597656 5.171875 -8.171875 C 5.023438 -7.753906 4.804688 -7.320312 4.515625 -6.875 C 4.222656 -6.4375 3.828125 -6.019531 3.328125 -5.625 C 2.828125 -5.226562 2.191406 -4.894531 1.421875 -4.625 L 0.5 -7.015625 C 1.207031 -7.304688 1.78125 -7.640625 2.21875 -8.015625 C 2.65625 -8.390625 2.96875 -8.867188 3.15625 -9.453125 C 3.351562 -10.035156 3.453125 -10.765625 3.453125 -11.640625 Z M 3.453125 -11.640625 "/></g></g></g><g fill="#ffffff" fill-opacity="1"><g transform="translate(155.742182, 144.814517)"><g><path d="M 5.515625 -10.375 C 6.546875 -10.375 7.425781 -10.148438 8.15625 -9.703125 C 8.882812 -9.265625 9.441406 -8.648438 9.828125 -7.859375 C 10.222656 -7.078125 10.421875 -6.164062 10.421875 -5.125 C 10.421875 -4.070312 10.222656 -3.148438 9.828125 -2.359375 C 9.441406 -1.578125 8.882812 -0.960938 8.15625 -0.515625 C 7.425781 -0.078125 6.546875 0.140625 5.515625 0.140625 C 4.472656 0.140625 3.582031 -0.078125 2.84375 -0.515625 C 2.113281 -0.960938 1.550781 -1.578125 1.15625 -2.359375 C 0.769531 -3.148438 0.578125 -4.070312 0.578125 -5.125 C 0.578125 -6.164062 0.769531 -7.078125 1.15625 -7.859375 C 1.550781 -8.648438 2.113281 -9.265625 2.84375 -9.703125 C 3.582031 -10.148438 4.472656 -10.375 5.515625 -10.375 Z M 5.515625 -8.34375 C 4.691406 -8.34375 4.050781 -8.066406 3.59375 -7.515625 C 3.132812 -6.972656 2.90625 -6.175781 2.90625 -5.125 C 2.90625 -4.863281 2.914062 -4.625 2.9375 -4.40625 C 2.96875 -4.1875 3.007812 -3.976562 3.0625 -3.78125 L 6.953125 -7.953125 C 6.566406 -8.210938 6.085938 -8.34375 5.515625 -8.34375 Z M 5.515625 -1.890625 C 6.335938 -1.890625 6.972656 -2.160156 7.421875 -2.703125 C 7.878906 -3.253906 8.109375 -4.0625 8.109375 -5.125 C 8.109375 -5.601562 8.054688 -6.046875 7.953125 -6.453125 L 4.046875 -2.296875 C 4.441406 -2.023438 4.929688 -1.890625 5.515625 -1.890625 Z M 5.515625 -1.890625 "/></g></g></g><g fill="#ffffff" fill-opacity="1"><g transform="translate(161.761636, 179.739344)"><g><path d="M 3.453125 -11.640625 L 8.59375 -11.640625 L 8.59375 0 L 5.953125 0 L 5.953125 -9.328125 L 5.453125 -9.328125 C 5.410156 -8.984375 5.316406 -8.597656 5.171875 -8.171875 C 5.023438 -7.753906 4.804688 -7.320312 4.515625 -6.875 C 4.222656 -6.4375 3.828125 -6.019531 3.328125 -5.625 C 2.828125 -5.226562 2.191406 -4.894531 1.421875 -4.625 L 0.5 -7.015625 C 1.207031 -7.304688 1.78125 -7.640625 2.21875 -8.015625 C 2.65625 -8.390625 2.96875 -8.867188 3.15625 -9.453125 C 3.351562 -10.035156 3.453125 -10.765625 3.453125 -11.640625 Z M 3.453125 -11.640625 "/></g></g></g><g fill="#ffffff" fill-opacity="1"><g transform="translate(183.503569, 187.991047)"><g><path d="M 4.75 -8.9375 C 5.644531 -8.9375 6.40625 -8.742188 7.03125 -8.359375 C 7.65625 -7.984375 8.132812 -7.457031 8.46875 -6.78125 C 8.8125 -6.101562 8.984375 -5.3125 8.984375 -4.40625 C 8.984375 -3.507812 8.8125 -2.722656 8.46875 -2.046875 C 8.132812 -1.367188 7.65625 -0.835938 7.03125 -0.453125 C 6.40625 -0.0664062 5.644531 0.125 4.75 0.125 C 3.851562 0.125 3.085938 -0.0664062 2.453125 -0.453125 C 1.828125 -0.835938 1.34375 -1.367188 1 -2.046875 C 0.664062 -2.722656 0.5 -3.507812 0.5 -4.40625 C 0.5 -5.3125 0.664062 -6.101562 1 -6.78125 C 1.34375 -7.457031 1.828125 -7.984375 2.453125 -8.359375 C 3.085938 -8.742188 3.851562 -8.9375 4.75 -8.9375 Z M 4.75 -7.1875 C 4.039062 -7.1875 3.488281 -6.953125 3.09375 -6.484375 C 2.695312 -6.015625 2.5 -5.320312 2.5 -4.40625 C 2.5 -4.195312 2.507812 -3.992188 2.53125 -3.796875 C 2.5625 -3.609375 2.597656 -3.429688 2.640625 -3.265625 L 6 -6.84375 C 5.664062 -7.070312 5.25 -7.1875 4.75 -7.1875 Z M 4.75 -1.625 C 5.457031 -1.625 6.003906 -1.859375 6.390625 -2.328125 C 6.785156 -2.804688 6.984375 -3.5 6.984375 -4.40625 C 6.984375 -4.820312 6.9375 -5.207031 6.84375 -5.5625 L 3.484375 -1.96875 C 3.828125 -1.738281 4.25 -1.625 4.75 -1.625 Z M 4.75 -1.625 "/></g></g></g><g fill="#ffffff" fill-opacity="1"><g transform="translate(172.261636, 206.217815)"><g><path d="M 3.453125 -11.640625 L 8.59375 -11.640625 L 8.59375 0 L 5.953125 0 L 5.953125 -9.328125 L 5.453125 -9.328125 C 5.410156 -8.984375 5.316406 -8.597656 5.171875 -8.171875 C 5.023438 -7.753906 4.804688 -7.320312 4.515625 -6.875 C 4.222656 -6.4375 3.828125 -6.019531 3.328125 -5.625 C 2.828125 -5.226562 2.191406 -4.894531 1.421875 -4.625 L 0.5 -7.015625 C 1.207031 -7.304688 1.78125 -7.640625 2.21875 -8.015625 C 2.65625 -8.390625 2.96875 -8.867188 3.15625 -9.453125 C 3.351562 -10.035156 3.453125 -10.765625 3.453125 -11.640625 Z M 3.453125 -11.640625 "/></g></g></g><g fill="#ffffff" fill-opacity="1"><g transform="translate(144.454839, 191.467833)"><g><path d="M 3.453125 -11.640625 L 8.59375 -11.640625 L 8.59375 0 L 5.953125 0 L 5.953125 -9.328125 L 5.453125 -9.328125 C 5.410156 -8.984375 5.316406 -8.597656 5.171875 -8.171875 C 5.023438 -7.753906 4.804688 -7.320312 4.515625 -6.875 C 4.222656 -6.4375 3.828125 -6.019531 3.328125 -5.625 C 2.828125 -5.226562 2.191406 -4.894531 1.421875 -4.625 L 0.5 -7.015625 C 1.207031 -7.304688 1.78125 -7.640625 2.21875 -8.015625 C 2.65625 -8.390625 2.96875 -8.867188 3.15625 -9.453125 C 3.351562 -10.035156 3.453125 -10.765625 3.453125 -11.640625 Z M 3.453125 -11.640625 "/></g></g></g></svg>